# xmcd
#
# Track frame offsets:
#	150
#	14345
#	31573
#	45118
#	62238
#	80383
#	99286
#	112057
#	134075
#	148899
#	168290
#
# Disc length: 2543 seconds
#
# Revision: 0
# Processed by: cddbd v1.5.2PL0 Copyright (c) Steve Scherf et al.
# Submitted via: EasyCDDAExtractor 10.0.2.1
#
DISCID=8a09ed0b
DTITLE=Adam Hood - 21 to Enter (Live)
DYEAR=2002
DGENRE=Acoustic
TTITLE0=Stay Out of My Way
TTITLE1=Take Me With You
TTITLE2=Million Miles Away
TTITLE3=This House
TTITLE4=Coffee Song
TTITLE5=I Wanna Be With You
TTITLE6=Tuesday Night
TTITLE7=Nobody Comes Here Anymore
TTITLE8=Big Mistake
TTITLE9=Last Man Standing
TTITLE10=Dead and Gone
EXTD=
EXTT0=
EXTT1=
EXTT2=
EXTT3=
EXTT4=
EXTT5=
EXTT6=
EXTT7=
EXTT8=
EXTT9=
EXTT10=
PLAYORDER=
